<svg width="10" height="10" viewBox="0 0 10 10" fill="none" xmlns="http://www.w3.org/2000/svg">
<path d="M9.24213 9.24265C9.50248 8.9823 9.50248 8.56019 9.24213 8.29984L5.94275 5.00046L9.24304 1.70018C9.50339 1.43983 9.50339 1.01772 9.24304 0.757367C8.98269 0.497018 8.56058 0.497017 8.30023 0.757367L4.99994 4.05765L1.69966 0.757365C1.43931 0.497016 1.0172 0.497016 0.756847 0.757365C0.496497 1.01771 0.496497 1.43983 0.756846 1.70017L4.05713 5.00046L0.757752 8.29984C0.497402 8.56019 0.497403 8.9823 0.757752 9.24265C1.0181 9.503 1.44021 9.503 1.70056 9.24265L4.99994 5.94327L8.29932 9.24265C8.55967 9.503 8.98178 9.503 9.24213 9.24265Z" fill="#191D23"/>
</svg>
